<svg width="15" height="13" viewBox="0 0 15 13" fill="none" xmlns="http://www.w3.org/2000/svg">
<path d="M5.47575 1.1206C5.82391 0.772564 6.3884 0.772683 6.73644 1.1206C7.08471 1.46888 7.08471 2.03325 6.73632 2.38153L3.31062 5.80711L13.2308 5.80806C13.7231 5.80818 14.1221 6.20721 14.1221 6.69978C14.122 7.19212 13.723 7.59104 13.2306 7.59104L3.31015 7.59009L6.73668 11.0164C7.08483 11.3645 7.08483 11.9291 6.73668 12.2772C6.56254 12.4512 6.33444 12.5383 6.10621 12.5383C5.87811 12.5383 5.65001 12.4512 5.47587 12.2773L0.527627 7.32918C0.360383 7.16205 0.266479 6.93537 0.266479 6.69883C0.266598 6.46229 0.360502 6.23573 0.527746 6.06825L5.47575 1.1206Z" fill="white"/>
</svg>
