<svg width="26" height="24" viewBox="0 0 26 24" fill="none" xmlns="http://www.w3.org/2000/svg">
<path d="M6.25084 7.81573C7.40409 7.81573 8.34206 6.87776 8.34206 5.72452C8.34206 4.57156 7.40409 3.6333 6.25084 3.6333C5.09788 3.6333 4.15991 4.57127 4.15991 5.72452C4.15991 6.87776 5.09788 7.81573 6.25084 7.81573ZM6.25084 4.48756C6.93311 4.48756 7.4878 5.04254 7.4878 5.72452C7.4878 6.40678 6.93311 6.96148 6.25084 6.96148C5.56886 6.96148 5.01417 6.4065 5.01417 5.72452C5.01417 5.04254 5.56886 4.48756 6.25084 4.48756Z" fill="white"/>
<path d="M9.64557 14.0937C9.62079 14.0883 9.58491 14.0815 9.54106 14.0795C9.45051 14.0664 9.36993 14.0698 9.30358 14.073L5.54657 14.075C5.31079 14.075 5.11944 14.266 5.11944 14.5021C5.11944 14.7381 5.31079 14.9292 5.54657 14.9292H9.24236C9.27596 14.9292 9.30899 14.9278 9.34202 14.9264C9.36822 14.9252 9.39327 14.9218 9.41634 14.9247C9.43969 14.9298 9.46361 14.9326 9.48753 14.9338C9.51686 14.94 9.56071 14.9477 9.61339 14.9477C9.8577 14.9477 10.0567 15.1465 10.0567 15.3908V22.4874C10.0567 22.7317 9.85799 22.9304 9.61339 22.9304C9.36936 22.9304 9.1706 22.7317 9.1706 22.4874V16.9845C9.1706 16.7485 8.97925 16.5574 8.74347 16.5574H3.76117C3.31212 16.5574 2.94678 16.1921 2.94678 15.7433C2.94678 15.6958 2.95447 15.6499 2.96216 15.6044C2.96928 15.5619 2.96985 15.5186 2.96415 15.4759L2.95903 15.4415C2.95362 15.4033 2.94678 15.3649 2.94678 15.325V9.73961C2.94678 9.1405 3.43428 8.65329 4.03311 8.65329C4.63194 8.65329 5.11915 9.1405 5.11915 9.73961V11.5748C5.11915 11.8109 5.31051 12.002 5.54628 12.002H9.41264C9.56982 12.002 9.69739 12.1298 9.69739 12.2867C9.69739 12.4436 9.56982 12.5715 9.41264 12.5715H6.25816C6.20662 12.5715 6.15565 12.5809 6.10753 12.5991L5.00639 13.0143C4.98874 13.0208 4.97165 13.0288 4.95485 13.0376L4.48501 13.2902L4.49868 10.1699C4.49982 9.9341 4.30932 9.74189 4.07355 9.74104C4.07269 9.74104 4.07212 9.74104 4.07155 9.74104C3.83663 9.74104 3.64556 9.93097 3.64443 10.1665L3.62763 14.0046C3.62706 14.1553 3.70565 14.2951 3.83492 14.3725C3.9642 14.45 4.1248 14.454 4.25693 14.3828L5.33414 13.8036L6.33618 13.426H9.41264C10.0408 13.426 10.5516 12.9152 10.5516 12.287C10.5516 11.6588 10.0408 11.148 9.41264 11.148H5.97341V9.7399C5.97341 8.6698 5.10292 7.79932 4.03311 7.79932C2.9633 7.79932 2.09253 8.6698 2.09253 9.7399V15.3253C2.09253 15.3953 2.09965 15.4634 2.10905 15.5312C2.09993 15.5967 2.09253 15.667 2.09253 15.7436C2.09253 16.6633 2.84114 17.412 3.76117 17.412H8.31606V22.4874C8.31606 23.2027 8.89781 23.7847 9.6131 23.7847C10.3287 23.7847 10.9107 23.203 10.9107 22.4874V15.3905C10.9104 14.686 10.3461 14.1108 9.64557 14.0937Z" fill="white"/>
<path d="M7.31201 17.8003H1.58765V9.16297C1.58765 8.92691 1.3963 8.73584 1.16053 8.73584C0.924751 8.73584 0.733398 8.92691 0.733398 9.16297V18.2275C0.733398 18.4635 0.924751 18.6546 1.16053 18.6546H1.69586V23.357C1.69586 23.593 1.88721 23.7841 2.12299 23.7841C2.35876 23.7841 2.55011 23.593 2.55011 23.357V18.6546H5.68238V23.357C5.68238 23.593 5.87373 23.7841 6.10951 23.7841C6.34528 23.7841 6.53664 23.593 6.53664 23.357V18.6546H7.3123C7.54807 18.6546 7.73943 18.4635 7.73943 18.2275C7.73943 17.9914 7.54807 17.8003 7.31201 17.8003Z" fill="white"/>
<path d="M24.3587 15.7431C24.3587 15.6665 24.3516 15.5962 24.3422 15.5307C24.3513 15.4632 24.3587 15.3949 24.3587 15.3248V9.73941C24.3587 8.66931 23.4879 7.79883 22.4181 7.79883C21.3483 7.79883 20.4778 8.66931 20.4778 9.73941V14.0745H17.2089L17.1474 14.0725C17.0637 14.0688 16.9825 14.0688 16.9105 14.079C16.8689 14.0807 16.8333 14.0873 16.8057 14.0933C16.1052 14.1103 15.5405 14.6855 15.5405 15.39V22.4866C15.5405 23.2019 16.1226 23.7839 16.8381 23.7839C17.5534 23.7839 18.1352 23.2022 18.1352 22.4866V17.4115H22.6901C23.6101 17.4115 24.3587 16.6631 24.3587 15.7431ZM17.7078 16.5572C17.472 16.5572 17.2806 16.7483 17.2806 16.9843V22.4869C17.2806 22.7312 17.0822 22.93 16.8379 22.93C16.5935 22.93 16.3945 22.7312 16.3945 22.4869V15.3903C16.3945 15.146 16.5933 14.9472 16.8379 14.9472C16.8883 14.9472 16.9304 14.9401 16.9626 14.9336C16.993 14.933 17.0244 14.9296 17.0506 14.9242L17.1092 14.9262C17.142 14.9276 17.175 14.929 17.2089 14.929H20.9038H20.9047C20.9055 14.929 20.9061 14.9287 20.907 14.9287C20.9485 14.9287 20.9881 14.9207 21.0263 14.9094C21.0308 14.9082 21.0351 14.9088 21.0394 14.9074L22.5309 14.4119C22.7063 14.3538 22.8242 14.1895 22.8233 14.0047L22.8065 10.1665C22.8054 9.93133 22.6143 9.74112 22.3794 9.74112C22.3788 9.74112 22.3783 9.74112 22.3774 9.74112C22.1416 9.74197 21.9511 9.93418 21.9523 10.17L21.9677 13.6986L21.3318 13.9099V9.73941C21.3318 9.14029 21.819 8.65308 22.4178 8.65308C23.0167 8.65308 23.5042 9.14029 23.5042 9.73941V15.3251C23.5042 15.365 23.4973 15.4031 23.4919 15.4416L23.4868 15.476C23.4808 15.5187 23.4814 15.562 23.4888 15.6044C23.4962 15.65 23.5042 15.6956 23.5042 15.7434C23.5042 16.1922 23.1388 16.5575 22.6898 16.5575L17.7078 16.5572Z" fill="white"/>
<path d="M22.3795 7.20245C23.5325 7.20245 24.4705 6.26448 24.4705 5.11123C24.4705 3.95828 23.5325 3.02002 22.3795 3.02002C21.2263 3.02002 20.2883 3.95799 20.2883 5.11123C20.2886 6.26419 21.2266 7.20245 22.3795 7.20245ZM22.3795 3.87427C23.0615 3.87427 23.6162 4.42926 23.6162 5.11123C23.6162 5.7935 23.0615 6.3482 22.3795 6.3482C21.6973 6.3482 21.1426 5.79322 21.1426 5.11123C21.1429 4.42897 21.6976 3.87427 22.3795 3.87427Z" fill="white"/>
<path d="M25.2905 8.73584C25.0548 8.73584 24.8634 8.92691 24.8634 9.16297V17.8003H19.139C18.9033 17.8003 18.7119 17.9914 18.7119 18.2275C18.7119 18.4635 18.9033 18.6546 19.139 18.6546H19.9147V23.357C19.9147 23.593 20.1061 23.7841 20.3418 23.7841C20.5776 23.7841 20.769 23.593 20.769 23.357V18.6546H23.9012V23.357C23.9012 23.593 24.0926 23.7841 24.3284 23.7841C24.5641 23.7841 24.7555 23.593 24.7555 23.357V18.6546H25.2908C25.5266 18.6546 25.7179 18.4635 25.7179 18.2275V9.16297C25.7177 8.92691 25.5263 8.73584 25.2905 8.73584Z" fill="white"/>
<path d="M19.247 11.4039C19.2498 11.384 19.2515 11.3638 19.2515 11.3436L19.2629 3.08377C19.2629 3.0832 19.2632 3.08292 19.2632 3.08235C19.2632 3.08178 19.2632 3.0815 19.2632 3.08093V2.9787C19.2632 2.86537 19.2182 2.75688 19.1382 2.67658L17.3075 0.846197C17.2275 0.766182 17.1187 0.721191 17.0054 0.721191H12.2187C11.3616 0.721191 10.6646 1.41798 10.6646 2.2748V11.1778C10.6646 12.0344 11.3616 12.7314 12.2187 12.7314H17.7096C18.4756 12.7309 19.1362 12.1605 19.247 11.4039ZM17.9083 2.65494H16.863V1.60962L17.9083 2.65494ZM11.5188 11.1776V2.27451C11.5188 1.88896 11.8329 1.57516 12.2187 1.57516H16.0091V3.08207C16.0091 3.31813 16.2004 3.50919 16.4362 3.50919H18.4092V7.66657L18.3973 11.3065C18.3366 11.6334 18.0459 11.8766 17.7099 11.8766H12.2187C11.8326 11.8766 11.5188 11.5631 11.5188 11.1776Z" fill="white"/>
<path d="M12.9302 6.12527C13.0096 6.19873 13.1133 6.2386 13.2201 6.2386C13.2397 6.2386 13.2599 6.23718 13.2796 6.23433C13.4063 6.21639 13.5188 6.14264 13.5851 6.03301L14.1839 5.0472C14.3064 4.84559 14.242 4.58277 14.0404 4.46033C13.8394 4.33845 13.5763 4.40195 13.4536 4.60356L13.1261 5.14316L13.0521 5.07482C12.8795 4.91507 12.6087 4.92533 12.4484 5.09874C12.2884 5.27215 12.2995 5.54238 12.4726 5.70241L12.9302 6.12527Z" fill="white"/>
<path d="M17.1031 4.8916H15.1896C14.9538 4.8916 14.7625 5.08267 14.7625 5.31873C14.7625 5.55479 14.9538 5.74586 15.1896 5.74586H17.1031C17.3389 5.74586 17.5302 5.55479 17.5302 5.31873C17.5302 5.08267 17.3389 4.8916 17.1031 4.8916Z" fill="white"/>
<path d="M14.0404 6.71394C13.8394 6.59178 13.5762 6.65528 13.4535 6.85717L13.1261 7.39649L13.052 7.32815C12.8795 7.16869 12.6084 7.17894 12.4486 7.35207C12.2883 7.52519 12.2994 7.79571 12.4726 7.95574L12.9301 8.37831C13.0096 8.45149 13.1132 8.49164 13.22 8.49164C13.2397 8.49164 13.2596 8.49022 13.2795 8.48737C13.4063 8.46943 13.5187 8.39568 13.5851 8.28605L14.1839 7.30053C14.3064 7.09921 14.242 6.83666 14.0404 6.71394Z" fill="white"/>
<path d="M17.1031 7.14453H15.1896C14.9538 7.14453 14.7625 7.3356 14.7625 7.57166C14.7625 7.80772 14.9538 7.99879 15.1896 7.99879H17.1031C17.3389 7.99879 17.5302 7.80772 17.5302 7.57166C17.5302 7.3356 17.3389 7.14453 17.1031 7.14453Z" fill="white"/>
<path d="M14.0405 8.82637C13.8386 8.70392 13.576 8.76771 13.4533 8.9696L13.1259 9.50892L13.0518 9.44058C12.8787 9.28112 12.6085 9.29137 12.4481 9.46478C12.2881 9.63791 12.2992 9.90842 12.4723 10.0685L12.9299 10.4907C13.0094 10.5639 13.1133 10.6038 13.2198 10.6038C13.2395 10.6038 13.2597 10.6024 13.2793 10.5995C13.406 10.5816 13.5182 10.5078 13.5849 10.3982L14.1837 9.41296C14.3061 9.21135 14.2421 8.94881 14.0405 8.82637Z" fill="white"/>
<path d="M16.9684 9.25732H15.1898C14.954 9.25732 14.7627 9.44839 14.7627 9.68445C14.7627 9.92051 14.954 10.1116 15.1898 10.1116H16.9684C17.2042 10.1116 17.3955 9.92051 17.3955 9.68445C17.3955 9.44839 17.2042 9.25732 16.9684 9.25732Z" fill="white"/>
</svg>
