<svg width="25" height="23" viewBox="0 0 25 23" fill="none" xmlns="http://www.w3.org/2000/svg">
<path d="M6.67373 3.87379C6.67373 3.64739 6.8571 3.46351 7.084 3.46351H14.9545C15.1809 3.46351 15.3648 3.64688 15.3648 3.87379C15.3648 4.10069 15.1814 4.28406 14.9545 4.28406H7.084C6.8571 4.28355 6.67373 4.10018 6.67373 3.87379ZM7.084 7.07863H14.9545C15.1809 7.07863 15.3648 6.89526 15.3648 6.66835C15.3648 6.44145 15.1814 6.25808 14.9545 6.25808H7.084C6.85761 6.25808 6.67373 6.44145 6.67373 6.66835C6.67373 6.89526 6.8571 7.07863 7.084 7.07863ZM7.084 9.8737H14.9545C15.1809 9.8737 15.3648 9.69034 15.3648 9.46343C15.3648 9.23653 15.1814 9.05316 14.9545 9.05316H7.084C6.85761 9.05316 6.67373 9.23653 6.67373 9.46343C6.67373 9.69034 6.8571 9.8737 7.084 9.8737ZM7.084 12.6688H12.8657C13.0921 12.6688 13.276 12.4854 13.276 12.2585C13.276 12.0316 13.0926 11.8482 12.8657 11.8482H7.084C6.85761 11.8482 6.67373 12.0316 6.67373 12.2585C6.67373 12.4854 6.8571 12.6688 7.084 12.6688ZM7.084 15.4634H11.6457C11.8721 15.4634 12.0559 15.28 12.0559 15.0531C12.0559 14.8262 11.8726 14.6428 11.6457 14.6428H7.084C6.85761 14.6428 6.67373 14.8262 6.67373 15.0531C6.67373 15.28 6.8571 15.4634 7.084 15.4634ZM7.084 18.2584H10.9808C11.2072 18.2584 11.3911 18.0751 11.3911 17.8482C11.3911 17.6213 11.2077 17.4379 10.9808 17.4379H7.084C6.85761 17.4379 6.67373 17.6213 6.67373 17.8482C6.67373 18.0751 6.8571 18.2584 7.084 18.2584ZM24.1475 7.72656L20.308 11.566V21.3767C20.308 22.2531 19.595 22.9661 18.7186 22.9661H6.21839C5.34201 22.9661 4.62903 22.2531 4.62903 21.3767V20.9997H4.25205C3.37567 20.9997 2.66269 20.2867 2.66269 19.4109V16.9841H1.73919C1.14299 16.9841 0.658447 16.499 0.658447 15.9033C0.658447 15.3076 1.1435 14.8226 1.73919 14.8226H2.6632V13.6235H1.73919C1.14299 13.6235 0.658447 13.1385 0.658447 12.5428C0.658447 11.9471 1.1435 11.462 1.73919 11.462H2.6632V10.263H1.73919C1.14299 10.263 0.658447 9.77792 0.658447 9.18223C0.658447 8.58654 1.1435 8.10149 1.73919 8.10149H2.6632V6.90243H1.73919C1.14299 6.90243 0.658447 6.41737 0.658447 5.82169C0.658447 5.226 1.1435 4.74094 1.73919 4.74094H2.6632V2.31157C2.6632 1.43469 3.37618 0.721191 4.25256 0.721191H16.7533C17.6297 0.721191 18.3427 1.43469 18.3427 2.31157V2.66346L18.7443 2.68804C19.6324 2.74182 20.3198 3.442 20.3085 4.28201L20.2706 6.96287L20.9559 6.27754L21.8272 5.40629C22.2667 4.96682 22.9822 4.96682 23.4222 5.40629L24.148 6.13208C24.5874 6.57155 24.5874 7.28709 24.1475 7.72656ZM22.4065 8.30791L21.2458 7.14726L14.4428 13.9498L15.6034 15.1104L17.642 13.0719L17.6425 13.0714L19.6078 11.1061L19.6083 11.1055L22.4065 8.30791ZM13.8727 15.6805L14.7942 15.4613L14.0919 14.7591L13.8727 15.6805ZM18.3427 3.48503V8.89028L19.4383 7.79468L19.488 4.27023C19.4931 3.86918 19.1448 3.53368 18.6941 3.50654L18.3427 3.48503ZM1.73919 6.07983H4.40776C4.54912 6.07983 4.66847 5.96049 4.66847 5.81912C4.66847 5.67776 4.54912 5.55841 4.40776 5.55841H1.73919C1.59782 5.55841 1.47848 5.67776 1.47848 5.81912C1.47848 5.96049 1.59782 6.07983 1.73919 6.07983ZM1.73919 9.4409H4.40776C4.54912 9.4409 4.66847 9.32155 4.66847 9.18018C4.66847 9.03882 4.54912 8.91947 4.40776 8.91947H1.73919C1.59782 8.91947 1.47848 9.03882 1.47848 9.18018C1.47848 9.32155 1.59782 9.4409 1.73919 9.4409ZM1.73919 12.802H4.40776C4.54912 12.802 4.66847 12.6826 4.66847 12.5412C4.66847 12.3999 4.54912 12.2805 4.40776 12.2805H1.73919C1.59782 12.2805 1.47848 12.3999 1.47848 12.5412C1.47848 12.6826 1.59782 12.802 1.73919 12.802ZM1.73919 16.163H4.40776C4.54912 16.163 4.66847 16.0437 4.66847 15.9023C4.66847 15.7584 4.55168 15.6416 4.40776 15.6416H1.73919C1.59526 15.6416 1.47848 15.7584 1.47848 15.9023C1.47848 16.0437 1.59782 16.163 1.73919 16.163ZM4.25256 20.1792H16.7533C17.1774 20.1792 17.5221 19.8345 17.5221 19.4104V14.3519L15.8933 15.9807C15.8396 16.0345 15.772 16.0724 15.6982 16.0898L13.4143 16.6327C13.383 16.6404 13.3508 16.644 13.3195 16.644C13.212 16.644 13.1075 16.6015 13.0296 16.5236C12.9287 16.4227 12.8878 16.2772 12.9205 16.1389L13.4635 13.855C13.4809 13.7813 13.5188 13.7137 13.5726 13.6599L17.5221 9.71031V2.31157C17.5221 1.88696 17.1774 1.54122 16.7533 1.54122H4.25256C3.82846 1.54122 3.48375 1.88696 3.48375 2.31157V4.73838H4.40776C5.00396 4.73838 5.4885 5.22343 5.4885 5.81912C5.4885 6.41481 5.00345 6.89987 4.40776 6.89987H3.48375V8.09893H4.40776C5.00396 8.09893 5.4885 8.58398 5.4885 9.17967C5.4885 9.77536 5.00345 10.2604 4.40776 10.2604H3.48375V11.4595H4.40776C5.00396 11.4595 5.4885 11.9445 5.4885 12.5402C5.4885 13.1359 5.00345 13.621 4.40776 13.621H3.48375V14.82H4.40776C5.00396 14.82 5.4885 15.3051 5.4885 15.9008C5.4885 16.4965 5.00345 16.9815 4.40776 16.9815H3.48375V19.4083C3.48375 19.8345 3.82846 20.1792 4.25256 20.1792ZM19.488 12.386L18.3422 13.5313V19.4104C18.3422 20.2867 17.6292 20.9992 16.7528 20.9992H5.44957V21.3762C5.44957 21.8003 5.79428 22.145 6.21839 22.145H18.7192C19.1433 22.145 19.488 21.8003 19.488 21.3762V12.386ZM23.5676 6.71189L22.8419 5.9861C22.7241 5.8683 22.5248 5.8683 22.407 5.9861L21.8257 6.56745L22.9863 7.7281L23.5676 7.14675C23.6855 7.02894 23.6855 6.8297 23.5676 6.71189Z" fill="white"/>
</svg>
