<svg width="23" height="26" viewBox="0 0 23 26" fill="none" xmlns="http://www.w3.org/2000/svg">
<path d="M16.1963 11.4438C16.1963 10.8976 15.7536 10.4548 15.2074 10.4548H5.02095C4.47475 10.4548 4.03198 10.8976 4.03198 11.4438C4.03198 11.99 4.47475 12.4328 5.02095 12.4328H15.2074C15.7536 12.4328 16.1963 11.99 16.1963 11.4438Z" fill="white"/>
<path d="M5.02095 14.4106C4.47475 14.4106 4.03198 14.8534 4.03198 15.3996C4.03198 15.9458 4.47475 16.3886 5.02095 16.3886H11.2075C11.7537 16.3886 12.1965 15.9458 12.1965 15.3996C12.1965 14.8534 11.7537 14.4106 11.2075 14.4106H5.02095Z" fill="white"/>
<path d="M7.345 23.9048H4.03743C2.94679 23.9048 2.05949 23.0175 2.05949 21.9269V4.52095C2.05949 3.43031 2.94679 2.54301 4.03743 2.54301H16.1963C17.2869 2.54301 18.1742 3.43031 18.1742 4.52095V10.6031C18.1742 11.1493 18.617 11.5921 19.1632 11.5921C19.7094 11.5921 20.1522 11.1493 20.1522 10.6031V4.52095C20.1522 2.33967 18.3776 0.565063 16.1963 0.565063H4.03743C1.85615 0.565063 0.081543 2.33967 0.081543 4.52095V21.9269C0.081543 24.1081 1.85615 25.8827 4.03743 25.8827H7.345C7.89121 25.8827 8.33397 25.44 8.33397 24.8938C8.33397 24.3476 7.89121 23.9048 7.345 23.9048Z" fill="white"/>
<path d="M21.9039 14.8841C20.7471 13.7273 18.8649 13.7272 17.7088 14.8833L12.2792 20.3009C12.1639 20.4159 12.0788 20.5577 12.0315 20.7135L10.849 24.6064C10.7442 24.9515 10.8355 25.3263 11.0874 25.5845C11.2761 25.7778 11.5324 25.8828 11.7953 25.8828C11.8833 25.8828 11.9721 25.8711 12.0593 25.8469L16.051 24.7412C16.2153 24.6957 16.365 24.6085 16.4857 24.488L21.9039 19.08C23.0607 17.9232 23.0607 16.041 21.9039 14.8841ZM15.2724 22.9044L13.2642 23.4607L13.8519 21.5259L17.5155 17.8704L18.9144 19.2693L15.2724 22.9044ZM20.506 17.6808L20.3144 17.872L18.9157 16.4734L19.1067 16.2828C19.4923 15.8972 20.1197 15.8972 20.5053 16.2828C20.8909 16.6684 20.8909 17.2958 20.506 17.6808Z" fill="white"/>
<path d="M15.2074 6.4989H5.02095C4.47475 6.4989 4.03198 6.94166 4.03198 7.48787C4.03198 8.03408 4.47475 8.47685 5.02095 8.47685H15.2074C15.7536 8.47685 16.1963 8.03408 16.1963 7.48787C16.1963 6.94166 15.7536 6.4989 15.2074 6.4989Z" fill="white"/>
</svg>
