<svg width="25" height="26" viewBox="0 0 25 26" fill="none" xmlns="http://www.w3.org/2000/svg">
<path d="M12.7144 14.1509C10.6049 14.1509 8.88843 12.4259 8.88843 10.3058C8.88843 8.18567 10.6049 6.46066 12.7144 6.46066C14.824 6.46066 16.5404 8.18567 16.5404 10.3058C16.5404 12.4259 14.824 14.1509 12.7144 14.1509Z" stroke="white" stroke-miterlimit="10" stroke-linecap="round" stroke-linejoin="round"/>
<path d="M5.57178 22.6084C5.57226 22.6022 5.57273 22.5959 5.57369 22.5897C5.92042 18.933 8.98498 16.0732 12.7144 16.0732C16.4438 16.0732 19.5079 18.9325 19.8556 22.5892" stroke="white" stroke-miterlimit="10" stroke-linecap="round" stroke-linejoin="round"/>
<path d="M21.9926 5.30696C21.9926 5.57242 21.7785 5.7876 21.5144 5.7876C21.2503 5.7876 21.0361 5.57242 21.0361 5.30696C21.0361 5.0415 21.2503 4.82632 21.5144 4.82632C21.7785 4.82632 21.9926 5.0415 21.9926 5.30696Z" fill="black"/>
<path d="M22.7779 7.0569C23.8579 8.84435 24.4795 10.9432 24.4795 13.1895C24.4795 17.0245 22.6674 20.4303 19.8558 22.5893V22.5898C17.8763 24.1105 15.4014 25.0132 12.7146 25.0132C10.0283 25.0132 7.55335 24.1105 5.57393 22.5898C2.76226 20.4308 0.949707 17.025 0.949707 13.1895C0.949707 6.6547 6.21139 1.36575 12.7146 1.36575C15.4344 1.36575 17.9374 2.29098 19.929 3.84575" stroke="white" stroke-miterlimit="10" stroke-linecap="round" stroke-linejoin="round"/>
</svg>
