<svg width="37" height="38" viewBox="0 0 37 38" fill="none" xmlns="http://www.w3.org/2000/svg">
    <path d="M18.3223 37.0218C8.29693 37.0218 0.0958252 28.8207 0.0958252 18.7953C0.0958252 8.76997 8.29693 0.568848 18.3223 0.568848C28.3477 0.568848 36.5488 8.76997 36.5488 18.7953C36.5488 28.8207 28.3477 37.0218 18.3223 37.0218Z" fill="#E5E7EB"/>
    <path d="M28.4446 18.1498C28.4446 19.1185 27.6374 19.9257 26.6526 19.9257H20.0982V26.4801C20.0982 27.4649 19.291 28.2721 18.3062 28.2721C17.3214 28.2721 16.5304 27.4649 16.5304 26.4801V19.9257H9.97593C8.99116 19.9257 8.18396 19.1185 8.18396 18.1498C8.18396 17.1812 8.99116 16.3579 9.97593 16.3579H16.5304V9.80342C16.5304 8.81865 17.3214 8.01147 18.3062 8.01147C19.291 8.01147 20.0982 8.81865 20.0982 9.80342V16.3579H26.6526C27.6374 16.3579 28.4446 17.1651 28.4446 18.1498Z" fill="#2D2D2D"/>
</svg>
