<svg width="27" height="27" viewBox="0 0 27 27" fill="none" xmlns="http://www.w3.org/2000/svg">
    <g clip-path="url(#clip0_146_28)">
        <path d="M15.5536 17.0967C15.3037 17.3464 14.995 17.5372 14.6604 17.6488L11.4286 18.726C11.1954 18.8038 10.9521 18.8433 10.706 18.8433C10.0956 18.8433 9.52171 18.6056 9.09012 18.1739C8.47409 17.5578 8.26264 16.6618 8.53813 15.8354L9.6154 12.6038C9.72686 12.2691 9.9178 11.9601 10.1674 11.7106L17.1475 4.73047H3.49072C1.95068 4.73047 0.697754 5.98339 0.697754 7.52344V23.7734C0.697754 25.3135 1.95068 26.5664 3.49072 26.5664H19.7407C21.2808 26.5664 22.5337 25.3135 22.5337 23.7734V10.1166L15.5536 17.0967Z" fill="white"/>
        <path d="M11.2446 12.7875C11.161 12.8712 11.098 12.9731 11.0607 13.0852L9.98339 16.3169C9.89214 16.5906 9.96339 16.8924 10.1674 17.0964C10.3714 17.3004 10.6732 17.3717 10.9469 17.2804L14.1786 16.2032C14.2908 16.1658 14.3927 16.1028 14.4763 16.0192L23.9919 6.50364L20.7602 3.27197L11.2446 12.7875Z" fill="white"/>
        <path d="M24.8896 0.937751C24.3938 0.441974 23.59 0.441974 23.0942 0.937751L21.8374 2.19454L25.0691 5.42625L26.3259 4.16947C26.8217 3.67369 26.8217 2.86988 26.3259 2.3741L24.8896 0.937751Z" fill="white"/>
    </g>
    <defs>
        <clipPath id="clip0_146_28">
            <rect width="26" height="26" fill="white" transform="translate(0.697754 0.566406)"/>
        </clipPath>
    </defs>
</svg>
