<svg width="22" height="22" viewBox="0 0 22 22" fill="none" xmlns="http://www.w3.org/2000/svg">
    <path d="M21.3731 12.6454L19.8212 11.8385C19.8336 11.6398 19.846 11.4288 19.846 11.2301C19.846 11.0315 19.846 10.8204 19.8212 10.6218L21.3731 9.81477C21.8821 9.54164 22.0808 8.92088 21.8201 8.41185L19.6846 4.31482C19.4115 3.8058 18.7783 3.60716 18.2817 3.86788L16.7298 4.67487C16.1463 4.20309 15.4759 3.79338 14.7682 3.49542V1.73246C14.7682 1.16135 14.2964 0.689575 13.7253 0.689575H9.10685C8.53575 0.689575 8.06397 1.16135 8.06397 1.73246V3.49542C7.3563 3.8058 6.69829 4.20309 6.10236 4.67487L4.55046 3.86788C4.05385 3.59474 3.42066 3.8058 3.14753 4.31482L1.01211 8.41185C0.751387 8.90846 0.950032 9.54164 1.45906 9.80236L3.02339 10.6218C3.01097 10.8204 2.99855 11.0315 2.99855 11.2301C2.99855 11.4288 2.99856 11.6398 3.02339 11.8385L1.45906 12.6579C0.962447 12.9186 0.751399 13.5518 1.02453 14.0484L3.14753 18.1454C3.42066 18.642 4.05385 18.8531 4.55046 18.5799L6.10236 17.7729C6.69829 18.2447 7.3563 18.642 8.06397 18.9524V20.7154C8.06397 21.2865 8.53575 21.7582 9.10685 21.7582H13.7253C14.2964 21.7582 14.7682 21.2865 14.7682 20.7154V18.9524C15.4759 18.6544 16.1463 18.2447 16.7298 17.7729L18.2817 18.5799C18.7783 18.8531 19.4115 18.642 19.6846 18.1454L21.8201 14.0484C22.0808 13.5393 21.8821 12.9186 21.3731 12.6454ZM11.4161 15.203C9.21858 15.203 7.44321 13.4152 7.44321 11.2301C7.44321 9.04503 9.21858 7.25724 11.4161 7.25724C13.6136 7.25724 15.389 9.03261 15.389 11.2301C15.389 13.4276 13.6136 15.203 11.4161 15.203Z" fill="white"/>
</svg>
